<svg xmlns="http://www.w3.org/2000/svg" viewBox="0 0 64 64" fill="none">
  <rect x="8" y="8" width="48" height="48" rx="14" fill="#f59e0b"/>
  <rect x="8" y="8" width="48" height="48" rx="14" stroke="#fcd34d" stroke-width="2"/>
  <g transform="translate(15.5 15.5) scale(1.35)">
    <path
      d="M4 13c3.5-2 8-2 10 2a5.5 5.5 0 0 1 8 5"
      stroke="#fff7ed"
      stroke-width="2.35"
      stroke-linecap="round"
      stroke-linejoin="round"
    />
    <path
      d="M5.15 17.89c5.52-1.52 8.65-6.89 7-12C11.55 4 11.5 2 13 2c3.22 0 5 5.5 5 8 0 6.5-4.2 12-10.49 12C5.11 22 2 22 2 20c0-1.5 1.14-1.55 3.15-2.11Z"
      fill="#fde047"
      stroke="#78350f"
      stroke-width="2"
      stroke-linecap="round"
      stroke-linejoin="round"
    />
  </g>
  <circle cx="49.5" cy="16.2" r="4.2" fill="#34d399"/>
  <circle cx="49.5" cy="16.2" r="1.4" fill="#ecfdf5"/>
</svg>
