<svg xmlns="http://www.w3.org/2000/svg" viewBox="0 0 320 96" fill="none">
  <rect x="8" y="16" width="64" height="64" rx="20" fill="#f59e0b"/>
  <rect x="8" y="16" width="64" height="64" rx="20" stroke="#fcd34d" stroke-width="2"/>
  <g transform="translate(17 24) scale(2.15)">
    <path
      d="M4 13c3.5-2 8-2 10 2a5.5 5.5 0 0 1 8 5"
      stroke="#fff7ed"
      stroke-width="2.25"
      stroke-linecap="round"
      stroke-linejoin="round"
    />
    <path
      d="M5.15 17.89c5.52-1.52 8.65-6.89 7-12C11.55 4 11.5 2 13 2c3.22 0 5 5.5 5 8 0 6.5-4.2 12-10.49 12C5.11 22 2 22 2 20c0-1.5 1.14-1.55 3.15-2.11Z"
      fill="#fde047"
      stroke="#78350f"
      stroke-width="1.9"
      stroke-linecap="round"
      stroke-linejoin="round"
    />
  </g>
  <circle cx="61" cy="28.4" r="6.2" fill="#34d399"/>
  <circle cx="61" cy="28.4" r="2.1" fill="#ecfdf5"/>
  <text x="92" y="59" fill="#111827" font-size="34" font-weight="700" font-family="ui-sans-serif, system-ui, -apple-system, BlinkMacSystemFont, 'Segoe UI', sans-serif">
    Pisang
  </text>
  <text x="208" y="59" fill="#f59e0b" font-size="34" font-weight="700" font-family="ui-sans-serif, system-ui, -apple-system, BlinkMacSystemFont, 'Segoe UI', sans-serif">
    DB
  </text>
</svg>
