<svg xmlns="http://www.w3.org/2000/svg" width="1200" height="630" viewBox="0 0 1200 630" fill="none">
  <defs>
    <linearGradient id="bg" x1="80" y1="60" x2="1100" y2="570" gradientUnits="userSpaceOnUse">
      <stop stop-color="#FFF8E7"/>
      <stop offset="0.5" stop-color="#FFF1C2"/>
      <stop offset="1" stop-color="#FFE1A6"/>
    </linearGradient>
    <linearGradient id="card" x1="160" y1="110" x2="960" y2="470" gradientUnits="userSpaceOnUse">
      <stop stop-color="#101828"/>
      <stop offset="1" stop-color="#1F2937"/>
    </linearGradient>
    <linearGradient id="accent" x1="250" y1="170" x2="760" y2="500" gradientUnits="userSpaceOnUse">
      <stop stop-color="#F59E0B"/>
      <stop offset="1" stop-color="#F97316"/>
    </linearGradient>
    <filter id="shadow" x="120" y="80" width="980" height="470" filterUnits="userSpaceOnUse" color-interpolation-filters="sRGB">
      <feDropShadow dx="0" dy="24" stdDeviation="28" flood-color="#7C2D12" flood-opacity="0.18"/>
    </filter>
  </defs>

  <rect width="1200" height="630" fill="url(#bg)"/>
  <circle cx="1030" cy="110" r="150" fill="#FDE68A" fill-opacity="0.55"/>
  <circle cx="1110" cy="220" r="72" fill="#F59E0B" fill-opacity="0.18"/>
  <circle cx="115" cy="540" r="140" fill="#FDBA74" fill-opacity="0.34"/>

  <g filter="url(#shadow)">
    <rect x="140" y="96" width="920" height="438" rx="38" fill="url(#card)"/>
    <rect x="140.75" y="96.75" width="918.5" height="436.5" rx="37.25" stroke="#FFFFFF" stroke-opacity="0.08" stroke-width="1.5"/>
  </g>

  <rect x="196" y="154" width="108" height="108" rx="30" fill="url(#accent)"/>
  <rect x="196.75" y="154.75" width="106.5" height="106.5" rx="29.25" stroke="#FDE68A" stroke-width="1.5"/>
  <g transform="translate(211 168) scale(3.3)">
    <path
      d="M4 13c3.5-2 8-2 10 2a5.5 5.5 0 0 1 8 5"
      stroke="#FFF7ED"
      stroke-width="2.25"
      stroke-linecap="round"
      stroke-linejoin="round"
    />
    <path
      d="M5.15 17.89c5.52-1.52 8.65-6.89 7-12C11.55 4 11.5 2 13 2c3.22 0 5 5.5 5 8 0 6.5-4.2 12-10.49 12C5.11 22 2 22 2 20c0-1.5 1.14-1.55 3.15-2.11Z"
      fill="#FDE047"
      stroke="#78350F"
      stroke-width="1.9"
      stroke-linecap="round"
      stroke-linejoin="round"
    />
  </g>
  <circle cx="286" cy="175" r="11" fill="#34D399"/>
  <circle cx="286" cy="175" r="4" fill="#ECFDF5"/>

  <text x="196" y="336" fill="#FFFFFF" font-size="72" font-weight="780" font-family="Geist, ui-sans-serif, system-ui, -apple-system, BlinkMacSystemFont, 'Segoe UI', sans-serif">
    Pisang<tspan fill="#F59E0B">DB</tspan>
  </text>
  <text x="196" y="402" fill="#FDE68A" font-size="24" font-weight="600" font-family="Geist, ui-sans-serif, system-ui, -apple-system, BlinkMacSystemFont, 'Segoe UI', sans-serif">
    Ephemeral database sandboxes for developers
  </text>
  <text x="196" y="452" fill="#D0D5DD" font-size="28" font-weight="500" font-family="Geist, ui-sans-serif, system-ui, -apple-system, BlinkMacSystemFont, 'Segoe UI', sans-serif">
    PostgreSQL 16, MySQL 8, and MariaDB 11 in seconds
  </text>
  <text x="196" y="491" fill="#98A2B3" font-size="24" font-weight="500" font-family="Geist, ui-sans-serif, system-ui, -apple-system, BlinkMacSystemFont, 'Segoe UI', sans-serif">
    Instant credentials • Browser SQL console • AI seeder • Auto-cleanup
  </text>

  <rect x="832" y="175" width="156" height="44" rx="22" fill="#FFFFFF" fill-opacity="0.08"/>
  <text x="863" y="204" fill="#FDE68A" font-size="20" font-weight="700" font-family="Geist, ui-sans-serif, system-ui, -apple-system, BlinkMacSystemFont, 'Segoe UI', sans-serif">
    Free in beta
  </text>

  <rect x="796" y="255" width="194" height="78" rx="22" fill="#FFFFFF" fill-opacity="0.06"/>
  <text x="825" y="287" fill="#98A2B3" font-size="18" font-weight="600" font-family="Geist, ui-sans-serif, system-ui, -apple-system, BlinkMacSystemFont, 'Segoe UI', sans-serif">
    Database engines
  </text>
  <text x="825" y="319" fill="#FFFFFF" font-size="34" font-weight="780" font-family="Geist, ui-sans-serif, system-ui, -apple-system, BlinkMacSystemFont, 'Segoe UI', sans-serif">
    3 active
  </text>

  <rect x="796" y="349" width="194" height="78" rx="22" fill="#FFFFFF" fill-opacity="0.06"/>
  <text x="825" y="381" fill="#98A2B3" font-size="18" font-weight="600" font-family="Geist, ui-sans-serif, system-ui, -apple-system, BlinkMacSystemFont, 'Segoe UI', sans-serif">
    Provision speed
  </text>
  <text x="825" y="413" fill="#FFFFFF" font-size="34" font-weight="780" font-family="Geist, ui-sans-serif, system-ui, -apple-system, BlinkMacSystemFont, 'Segoe UI', sans-serif">
    ~2 seconds
  </text>
</svg>
